# xmcd CD database file
#
# Track frame offsets:
#	150
#	21828
#	41286
#	66056
#	77701
#	94064
#	120493
#	142089
#	160684
#	190043
#	207206
#	223793
#	247714
#	267854
#	288008
#	310063
#
# Disc length: 4411 seconds
#
# Revision: 0
# Processed by: cddbd v1.5.2PL0 Copyright (c) Steve Scherf et al.
# Submitted via: CDex 1.70beta2
#
DISCID=d1113910
DTITLE=Aretha Franklin - Beautiful Ballads and Love Songs
DYEAR=2008
DGENRE=Jazz
TTITLE0=(It's just) your love
TTITLE1=Love pang
TTITLE2=I got your love
TTITLE3=You are my joy
TTITLE4=Misty
TTITLE5=Freeway of love
TTITLE6=This is for real
TTITLE7=Love me right
TTITLE8=Every girl (wants my guy)
TTITLE9=When you love me like that
TTITLE10=Unforgettable
TTITLE11=Gimme your love - duet with James Brown
TTITLE12=A rose is still a rose
TTITLE13=Never leave you again
TTITLE14=Until you say you love me
TTITLE15=Giving in
EXTD=YEAR: 2008
EXTT0=
EXTT1=
EXTT2=
EXTT3=
EXTT4=
EXTT5=
EXTT6=
EXTT7=
EXTT8=
EXTT9=
EXTT10=
EXTT11=
EXTT12=
EXTT13=
EXTT14=
EXTT15=
PLAYORDER=
